<svg width="460" height="43" viewBox="0 0 460 43" fill="none" xmlns="http://www.w3.org/2000/svg">
<path d="M137.919 7.58891V15.1779L136.997 14.3631C135.659 13.2225 133.629 12.1749 131.899 11.7559C130.008 11.3136 126.641 11.3136 124.542 11.7559C119.468 12.8267 115.155 16.9238 113.772 21.9754C113.241 23.9542 113.126 27.9814 113.564 30.2628C114.625 35.9662 118.73 40.2961 124.335 41.6696C129.109 42.8103 133.998 41.8325 137.066 39.0856L138.15 38.1312V39.9004C138.15 42.0188 138.011 41.9489 141.955 41.8558L144.723 41.786L144.792 20.8813L144.838 -9.91821e-05H141.379H137.919V7.58891ZM132.453 17.9248C134.875 18.856 136.604 20.6485 137.435 23.1161C139.164 28.1444 137.227 33.2891 132.891 35.3377C131.738 35.8964 131.3 35.9662 129.155 35.9662C127.01 35.9662 126.572 35.8964 125.419 35.3377C122.651 34.034 120.852 31.4966 120.414 28.2608C119.653 22.86 122.628 18.3439 127.517 17.4593C128.947 17.1799 131.069 17.3894 132.453 17.9248Z" fill="#D9D9D9"/>
<path d="M324.088 20.8813L324.157 41.786H327.502H330.846L330.984 32.8235C331.053 27.609 331.215 23.5584 331.353 23.1627C332.645 19.3449 335.089 17.6222 339.264 17.5989C341.224 17.5757 341.593 17.6455 342.793 18.2275C344.269 18.9724 345.122 19.9036 345.814 21.5797C346.275 22.6272 346.298 23.2791 346.414 32.2415L346.529 41.786H349.988H353.448L353.425 31.7759C353.402 22.2548 353.379 21.6728 352.894 19.9036C351.418 14.433 347.198 11.43 340.971 11.4067C337.303 11.4067 334.374 12.2913 332.206 14.0838C331.676 14.5261 331.169 14.8986 331.099 14.8986C331.03 14.8986 330.961 11.5464 330.961 7.44923V-9.53674e-05H327.502H324.042L324.088 20.8813Z" fill="#D9D9D9"/>
<path d="M415.835 7.58891V15.1546L414.751 14.2467C412.214 12.1051 409.515 11.3136 405.456 11.4532C401.074 11.6395 397.707 13.1061 395.008 16.0625C392.564 18.7163 391.434 21.603 391.226 25.5837C390.811 33.8012 395.032 39.9237 402.273 41.6696C407.025 42.8103 411.914 41.8325 414.981 39.0856L416.065 38.1312V39.9004C416.065 42.0188 415.927 41.9489 419.871 41.8558L422.638 41.786L422.708 20.8813L422.754 -9.91821e-05H419.294H415.835V7.58891ZM410.415 17.9481C413.575 19.1354 415.604 21.9521 415.973 25.6768C416.388 29.7507 414.29 33.7314 410.922 35.2911C409.631 35.8964 409.262 35.9662 407.071 35.9662C404.949 35.9662 404.488 35.8964 403.38 35.3609C401.051 34.2668 399.483 32.4278 398.652 29.8438C398.053 27.9349 398.237 24.3033 399.045 22.5341C401.051 18.1809 405.871 16.2255 410.415 17.9481Z" fill="#D9D9D9"/>
<path d="M208.955 9.54436V16.7376L212.253 22.5574C214.052 25.7699 215.597 28.4005 215.713 28.4005C215.805 28.4005 215.874 25.7234 215.874 22.4643C215.874 19.2052 215.943 16.5281 216.059 16.5281C216.151 16.5514 217.258 18.2973 218.549 20.439C219.841 22.5807 222.632 27.2365 224.777 30.7982L228.674 37.2466H230.365H231.995L238.315 26.608C241.774 20.8347 244.634 16.1324 244.727 16.1789C244.796 16.2255 244.888 19.019 244.911 22.3944C244.934 25.7466 245.003 28.5401 245.026 28.5867C245.072 28.61 246.618 26.2588 248.486 23.3489L251.853 18.0412L251.784 10.2427L251.738 2.30454H248.733H245.695L238.2 15.1779C234.071 22.2548 230.607 28.1444 230.496 28.0978C230.381 28.1444 226.829 22.3479 222.609 15.2477L214.905 2.32782H211.93H208.955V9.54436Z" fill="#D9D9D9"/>
<path d="M19.1427 8.92062C18.7045 9.59571 14.0226 16.6679 11.3011 21.2539L6.34246 29.5646L6.27327 23.512C6.2502 20.1831 6.18562 17.4804 6.18562 17.2709C6.11182 17.3453 4.7603 19.4242 3.09742 21.9756L0 26.7711V34.2204V41.6697H2.72149H5.44298L8.18753 36.9673C9.70972 34.3601 11.8316 30.7285 12.9386 28.8662C14.0226 27.0039 15.8215 23.9543 16.9286 22.0454C18.0356 20.1598 18.9812 18.6234 19.0274 18.6234C19.0735 18.6234 22.2101 23.8146 25.9695 30.1466L32.8193 41.6697H35.5408H38.2854V34.5929V27.4927L36.1866 23.8146C35.0104 21.7893 33.6496 19.3916 33.1192 18.507L32.1735 16.8774L32.0582 23.1395L31.9429 29.4016L29.8441 25.933C28.691 24.0241 26.0064 19.8944 23.9906 16.6679" fill="#D9D9D9"/>
<path d="M54.1994 11.7793C50.048 12.6639 46.1272 15.76 44.3052 19.6011C43.0367 22.2083 42.5754 24.6759 42.7599 27.7022C43.0136 31.7994 44.259 34.686 47.0497 37.4795C50.048 40.529 53.323 41.856 58.3739 42.0655C61.4644 42.2051 63.5632 41.9025 66.1232 40.9248C68.1067 40.1799 71.0357 38.0149 71.0357 37.2932C71.0357 37.107 70.3438 36.1526 69.4905 35.1748C68.6371 34.1971 67.876 33.3125 67.7607 33.1961C67.6685 33.0564 67.1841 33.2892 66.6537 33.7315C66.1463 34.1506 65.0392 34.8024 64.1859 35.1981C62.8713 35.8267 62.3408 35.9431 60.242 36.0362C57.5667 36.1526 55.8369 35.8732 54.1763 35.0119C52.2159 34.0109 50.417 31.7761 49.9326 29.7275L49.7712 29.099H61.4183H73.0884L73.2268 27.8652C73.4113 26.4452 73.0192 22.9998 72.5118 21.4634C70.8282 16.3653 66.9535 12.8268 61.9256 11.756C59.9191 11.337 56.1828 11.337 54.1994 11.7793ZM61.8334 17.7388C63.6554 18.6001 64.9239 19.8339 65.7081 21.4867C66.0771 22.2782 66.4461 23.2094 66.5153 23.5585L66.6537 24.2104H58.1432H49.6098L49.9557 22.9766C50.8091 20.1132 52.977 17.9483 55.7446 17.2266C57.336 16.8309 60.4496 17.0869 61.8334 17.7388Z" fill="#D9D9D9"/>
<path d="M91.7004 11.7791C89.8323 12.2447 87.6874 13.3156 86.4189 14.433L85.3349 15.4107V13.5251V11.6395H81.9907H78.6465L78.6926 26.7011L78.7618 41.786H82.106H85.4502L85.5886 32.9399C85.7039 25.2578 85.7731 23.9309 86.119 22.9299C86.9493 20.5554 88.1256 19.2518 90.2935 18.2275C91.4928 17.6688 91.9541 17.5757 93.8684 17.5757C95.6673 17.5757 96.267 17.6688 97.2356 18.1111C98.6886 18.7862 99.6804 19.7872 100.372 21.3003C100.903 22.441 100.903 22.6505 101.018 32.1251L101.133 41.786H104.593H108.052V31.6595C108.052 20.4623 108.006 20.02 106.507 17.1799C105.054 14.4097 102.033 12.2447 98.8501 11.6627C96.9819 11.3136 93.3379 11.3834 91.7004 11.7791Z" fill="#D9D9D9"/>
<path d="M161.721 11.7558C159.184 12.3145 156.555 13.7811 154.664 15.6667C151.596 18.7163 150.282 22.0685 150.282 26.7709C150.282 29.8437 150.789 31.9621 152.127 34.3599C153.672 37.1767 156.694 39.8072 159.692 40.9479C163.405 42.3446 168.825 42.5309 172.4 41.3669C174.568 40.6453 176.643 39.458 177.912 38.1777L178.811 37.2931L177.012 35.1747C175.998 34.0107 175.167 33.0562 175.121 33.0562C175.075 33.0562 174.429 33.5218 173.668 34.0805C171.569 35.6635 170.416 35.9661 166.864 35.9661C164.304 35.9429 163.682 35.873 162.552 35.4074C160.268 34.4996 157.939 31.9156 157.432 29.7506L157.293 29.0988L168.986 29.0522L180.703 28.9824L180.68 26.4217C180.68 24.8387 180.518 23.279 180.287 22.3478C178.881 16.9005 174.775 12.8732 169.448 11.7325C167.487 11.3368 163.659 11.3368 161.721 11.7558ZM169.632 17.9015C171.823 18.9956 173.553 21.1839 174.014 23.442L174.176 24.2102H165.711H157.247L157.408 23.3488C157.639 22.0219 158.539 20.4622 159.646 19.4147C161.698 17.4825 163.105 16.9703 166.126 17.0867C167.833 17.1566 168.387 17.273 169.632 17.9015Z" fill="#D9D9D9"/>
<path d="M199.338 11.756C197.47 12.175 195.348 13.3157 194.126 14.5728C193.595 15.1315 193.088 15.597 192.996 15.597C192.88 15.597 192.811 14.7124 192.811 13.6183V11.6163L189.536 11.6861L186.238 11.756V26.771V41.7861L189.236 41.8559C190.897 41.8792 192.465 41.8559 192.765 41.7861L193.272 41.6697V33.3125C193.272 25.6304 193.318 24.8389 193.734 23.4654C194.818 19.8804 197.677 17.925 201.875 17.925H203.42V14.6659V11.4068L202.106 11.4301C201.368 11.4301 200.122 11.593 199.338 11.756Z" fill="#D9D9D9"/>
<path d="M266.914 11.7559C264.792 12.1516 263.178 12.687 261.309 13.6415C258.68 14.9684 258.749 14.689 260.295 17.5291C261.563 19.8803 262.001 20.3459 262.347 19.7872C262.578 19.4147 264.953 18.274 266.499 17.7852C268.574 17.1333 273.256 17.1799 274.709 17.855C276.808 18.8327 278.146 20.9046 278.146 23.2092V24.2102H273.026C268.92 24.2102 267.467 24.3033 265.807 24.6525C262.186 25.3974 260.018 26.9106 258.819 29.5411C258.311 30.6585 258.219 31.1707 258.196 33.0563C258.196 34.9652 258.288 35.454 258.795 36.5482C260.479 40.1797 264.192 42.1352 269.359 42.1352C272.933 42.1352 275.493 41.2738 277.454 39.4348L278.607 38.3407V39.9935C278.607 42.0188 278.492 41.9489 282.412 41.8558L285.18 41.786V31.4267C285.18 21.2305 285.18 21.0442 284.65 19.3216C283.358 15.1779 280.567 12.7336 276.001 11.7791C273.879 11.3368 269.289 11.3136 266.914 11.7559ZM278.146 30.7982C278.146 32.5441 278.077 32.8468 277.5 33.7081C276.231 35.6403 274.11 36.7577 271.411 36.9439C268.505 37.1534 266.429 36.3619 265.461 34.6626C264.654 33.1727 264.976 31.2172 266.222 30.0533C267.191 29.1687 268.828 28.9126 273.718 28.8893L278.146 28.866V30.7982Z" fill="#D9D9D9"/>
<path d="M302.455 11.7559C294.774 13.432 289.977 19.8105 290.439 27.7487C290.784 33.4055 293.737 37.8984 298.718 40.366C301.601 41.786 303.885 42.2283 307.413 42.0654C311.611 41.8559 314.655 40.6221 317.1 38.1545C318.276 36.9673 319.406 35.2679 319.176 35.0584C318.922 34.8489 315.093 32.5908 314.563 32.358C314.009 32.1019 313.894 32.1718 312.787 33.3357C311.173 35.0584 309.489 35.8731 307.206 36.0128C302.547 36.3387 298.949 33.941 297.842 29.7507C297.404 28.0979 297.427 25.0483 297.888 23.5119C298.857 20.2295 301.486 17.9715 304.992 17.436C307.967 16.9705 310.827 17.9482 312.879 20.183L314.079 21.4401L316.639 19.9036C318.045 19.0656 319.199 18.2974 319.199 18.181C319.199 18.0879 318.876 17.5059 318.484 16.9239C316.892 14.4796 313.733 12.431 310.504 11.7559C308.566 11.3369 304.346 11.3369 302.455 11.7559Z" fill="#D9D9D9"/>
<path d="M367.608 11.7791C366.64 11.9421 365.118 12.3611 364.195 12.687C362.627 13.269 359.79 14.7822 359.79 15.0382C359.79 15.1546 361.935 19.1819 362.304 19.7639C362.465 20.02 362.742 19.9501 363.711 19.3449C364.356 18.9491 365.694 18.3206 366.663 17.9947C368.231 17.436 368.785 17.3661 371.437 17.3661C373.997 17.3661 374.597 17.436 375.473 17.8317C377.572 18.8094 378.933 20.9278 378.933 23.1859V24.1637L373.005 24.28C368.323 24.3499 366.755 24.4663 365.671 24.7922C362.627 25.6768 360.851 27.027 359.744 29.2851C359.052 30.7051 358.983 31.0077 358.983 33.0563C358.983 35.1049 359.052 35.4075 359.744 36.8275C361.427 40.2728 365.048 42.1352 370.145 42.1352C373.766 42.1352 376.649 41.1109 378.471 39.2253L379.279 38.3872L379.394 40.0866L379.509 41.786H382.738H385.967V31.4267C385.967 22.022 385.921 20.9278 385.552 19.6708C384.214 15.271 381.4 12.7336 376.788 11.7791C374.62 11.3136 370.053 11.3136 367.608 11.7791ZM378.933 30.7749C378.91 32.7071 378.771 33.1494 377.895 34.2435C375.658 37.0137 370.376 37.8984 367.493 36.0127C365.279 34.5462 365.233 31.3802 367.424 29.7507C368.3 29.0988 369.707 28.9126 374.504 28.8893L378.933 28.866V30.7749Z" fill="#D9D9D9"/>
<path d="M439.936 11.7791C437.214 12.3611 434.677 13.7811 432.555 15.9461C430.457 18.0412 429.511 19.6708 428.727 22.4643C428.058 24.8155 428.012 28.4936 428.612 30.7051C430.48 37.7121 436.476 42.1352 444.087 42.1352C451.514 42.1352 457.418 37.9216 459.447 31.194C460.139 28.9359 460.186 24.8853 459.563 22.5807C458.087 17.0635 453.543 12.8267 448.008 11.7559C445.794 11.3136 442.058 11.3368 439.936 11.7791ZM447.662 17.9947C449.438 18.6465 451.56 20.8115 452.229 22.6505C453.682 26.5614 452.759 31.5199 450.13 33.8943C449.622 34.3599 448.631 35.0117 447.916 35.3609C446.763 35.8963 446.347 35.9662 444.087 35.9662C441.758 35.9662 441.435 35.9196 440.189 35.2911C437.445 33.9409 435.83 31.5664 435.369 28.2375C434.608 22.9531 437.606 18.2973 442.334 17.4593C443.81 17.1799 446.163 17.4127 447.662 17.9947Z" fill="#D9D9D9"/>
</svg>
