<svg width="57" height="91" viewBox="0 0 57 91" fill="none" xmlns="http://www.w3.org/2000/svg">
<g clip-path="url(#clip0_5_33)">
<mask id="mask0_5_33" style="mask-type:luminance" maskUnits="userSpaceOnUse" x="0" y="0" width="57" height="89">
<path d="M56.875 0H0V88.7597H56.875V0Z" fill="white"/>
</mask>
<g mask="url(#mask0_5_33)">
<path d="M30.8438 90.9568L39.2437 77.0827L47.6875 63.1659V73.7219V84.2785L52.2813 77.3847L56.875 70.5335V46.7927V23.0947L52.4125 16.8471L48.1687 10.9614V20.5009V30.7513L39.1563 16.7178L30.7125 3.05923H28.4375H26.0312L17.6312 16.9333L9.18747 30.8504V20.2941V9.73775L4.59375 17.9243L0 26.1109V48.8609V71.6108L4.50625 77.8585L8.96873 84.1062L9.18747 73.9807L9.40627 63.8553L17.7187 77.2982L26.075 90.9568M29.12 79.0392C28.8925 78.6769 8.70625 47.0512 8.70625 47.0512L18.5544 30.8504C26.4513 17.8381 28.3587 14.6152 28.7131 14.18C28.9669 14.5247 33.8143 22.7931 39.095 31.3675L48.72 46.965" fill="white"/>
</g>
</g>
<defs>
<clipPath id="clip0_5_33">
<rect width="56.875" height="91" fill="white"/>
</clipPath>
</defs>
</svg>
